#tb 0: 1/25
#media_type 0: video
#codec_id 0: rawvideo
#dimensions 0: 352x512
#sar 0: 1/1
0,          0,          0,        1,   540672, 0xe33821d6
0,          1,          1,        1,   540672, 0x12c521d6
0,          2,          2,        1,   540672, 0x8b6721d6
0,          3,          3,        1,   540672, 0x6fd321d6
0,          4,          4,        1,   540672, 0x703421d6
0,          5,          5,        1,   540672, 0x7de421d6
0,          6,          6,        1,   540672, 0xd8ff21d6
0,          7,          7,        1,   540672, 0x01c221d6
0,          8,          8,        1,   540672, 0x831021d6
0,          9,          9,        1,   540672, 0xc71121d6
0,         10,         10,        1,   540672, 0x3cba21d6
0,         11,         11,        1,   540672, 0xdd0821d6
0,         12,         12,        1,   540672, 0xb0bd21d6
0,         13,         13,        1,   540672, 0xc0c521d6
0,         14,         14,        1,   540672, 0xac6b21d6
0,         15,         15,        1,   540672, 0x11ce21d6
0,         16,         16,        1,   540672, 0x810921d6
0,         17,         17,        1,   540672, 0xd06521d6
0,         18,         18,        1,   540672, 0xe77921d6
0,         19,         19,        1,   540672, 0xcddc21d6
0,         20,         20,        1,   540672, 0x5de021d6
0,         21,         21,        1,   540672, 0x25f621d6
0,         22,         22,        1,   540672, 0x8a8521d6
0,         23,         23,        1,   540672, 0x30b521d6
0,         24,         24,        1,   540672, 0xfbbf21d6
0,         25,         25,        1,   540672, 0xd81d21d6
0,         26,         26,        1,   540672, 0xa14821d6
0,         27,         27,        1,   540672, 0x0f7921d6
0,         28,         28,        1,   540672, 0x109221d6
0,         29,         29,        1,   540672, 0xf8e821d6
0,         30,         30,        1,   540672, 0x104321d6
0,         31,         31,        1,   540672, 0xad1521d6
0,         32,         32,        1,   540672, 0xfc5421d6
0,         33,         33,        1,   540672, 0x393621d6
0,         34,         34,        1,   540672, 0xc8da21d6
0,         35,         35,        1,   540672, 0xd8b921d6
0,         36,         36,        1,   540672, 0x1dae21d6
0,         37,         37,        1,   540672, 0x9a0321d6
0,         38,         38,        1,   540672, 0x386121d6
0,         39,         39,        1,   540672, 0x096521d6
0,         40,         40,        1,   540672, 0x7b3b21d6
0,         41,         41,        1,   540672, 0x836821d6
0,         42,         42,        1,   540672, 0x97bd21d6
0,         43,         43,        1,   540672, 0x46a121d6
0,         44,         44,        1,   540672, 0x0a8721d6
0,         45,         45,        1,   540672, 0xf86921d6
0,         46,         46,        1,   540672, 0x795621d6
0,         47,         47,        1,   540672, 0x1b9021d6
0,         48,         48,        1,   540672, 0x979621d6
0,         49,         49,        1,   540672, 0x041021d6
